<?xml version="1.0" encoding="UTF-8"?>
<svg width="18px" height="18px" viewBox="0 0 18 18" version="1.1" xmlns="http://www.w3.org/2000/svg" xmlns:xlink="http://www.w3.org/1999/xlink">
    <!-- Generator: Sketch 61.2 (89653) - https://sketch.com -->
    <title>Icon - Log Out@3x</title>
    <desc>Created with Sketch.</desc>
    <defs>
        <path d="M10.09,15.59 L11.5,17 L16.5,12 L11.5,7 L10.09,8.41 L12.67,11 L3,11 L3,13 L12.67,13 L10.09,15.59 Z M21,3 L3,3 L3,9 L5,9 L5,5 L19,5 L19,19 L5,19 L5,15 L3,15 L3,21 L21,21 L21,3 Z" id="path-1"></path>
    </defs>
    <g id="Desktop---Main" stroke="none" stroke-width="1" fill="none" fill-rule="evenodd">
        <g id="V2---Plndr---Desktop---Navigation-Drawer---1" transform="translate(-63.000000, -739.000000)">
            <g id="Menu" transform="translate(40.000000, 96.000000)">
                <g transform="translate(0.000000, 48.000000)" id="Menu-/-Data-Sets-/-Business-Logged-In">
                    <g transform="translate(0.000000, 120.000000)">
                        <g id="Stacked-Group">
                            <g id="Menu-/-Tertiary-Options" transform="translate(0.000000, 344.000000)">
                                <g id="Group-3">
                                    <g id="Log-Out-Copy-2" transform="translate(0.000000, 120.000000)">
                                        <g id="icon/action/exit_to_app_24px" transform="translate(20.000000, 8.000000)">
                                            <mask id="mask-2" fill="white">
                                                <use xlink:href="#path-1"></use>
                                            </mask>
                                            <g fill-rule="nonzero"></g>
                                            <g id="Colors/Yellow/1-(Primary)" mask="url(#mask-2)" fill="#FAC51C" fill-rule="evenodd">
                                                <polygon id="Backing" points="0 0 24 0 24 24 0 24"></polygon>
                                            </g>
                                        </g>
                                    </g>
                                </g>
                            </g>
                        </g>
                    </g>
                </g>
            </g>
        </g>
    </g>
</svg>