<?xml version="1.0" encoding="UTF-8"?>
<svg width="44px" height="44px" viewBox="0 0 44 44" version="1.1" xmlns="http://www.w3.org/2000/svg" xmlns:xlink="http://www.w3.org/1999/xlink">
    <!-- Generator: Sketch 61.2 (89653) - https://sketch.com -->
    <title>Social - Facebook@3x</title>
    <desc>Created with Sketch.</desc>
    <defs>
        <path d="M22,0 C34.1502645,0 44,9.8497355 44,22 C44,34.1502645 34.1502645,44 22,44 C9.8497355,44 0,34.1502645 0,22 C0,9.8497355 9.8497355,0 22,0 Z M22,2 C10.954305,2 2,10.954305 2,22 C2,33.045695 10.954305,42 22,42 C33.045695,42 42,33.045695 42,22 C42,10.954305 33.045695,2 22,2 Z M26.9776468,12 L26.9776468,15.964466 L24.9435074,15.964466 C23.4212558,15.964466 23.3206665,16.5182719 23.3206665,17.5518493 L23.3139606,19.535534 L27,19.535534 L26.5685836,23.4985483 L23.3139606,23.4985483 L23.3139606,35 L18.4372418,35 L18.4372418,23.4985483 L16,23.4985483 L16,19.535534 L18.4372418,19.535534 L18.4372418,17.1562737 C18.4372418,13.9234411 19.8127074,12 23.7230238,12 L26.9776468,12 Z" id="path-1"></path>
    </defs>
    <g id="Symbols" stroke="none" stroke-width="1" fill="none" fill-rule="evenodd">
        <g id="Menu-/-Bottom-of-Menu" transform="translate(-20.000000, 0.000000)">
            <g id="Group-2" transform="translate(20.000000, 0.000000)">
                <g id="Social---Facebook">
                    <g id="facebook">
                        <rect id="Rectangle" x="0" y="0" width="44" height="44"></rect>
                        <mask id="mask-2" fill="white">
                            <use xlink:href="#path-1"></use>
                        </mask>
                        <use id="Oval" fill="#000000" xlink:href="#path-1"></use>
                        <g id="Colors/Yellow/1-(Primary)" mask="url(#mask-2)" fill="#FAC51C">
                            <polygon id="Backing" points="0 0 44 0 44 44 0 44"></polygon>
                        </g>
                    </g>
                </g>
            </g>
        </g>
    </g>
</svg>