<?xml version="1.0" encoding="UTF-8"?>
<svg width="44px" height="44px" viewBox="0 0 44 44" version="1.1" xmlns="http://www.w3.org/2000/svg" xmlns:xlink="http://www.w3.org/1999/xlink">
    <!-- Generator: Sketch 61.2 (89653) - https://sketch.com -->
    <title>Social - Twitter@3x</title>
    <desc>Created with Sketch.</desc>
    <defs>
        <path d="M22,0 C34.1502645,0 44,9.8497355 44,22 C44,34.1502645 34.1502645,44 22,44 C9.8497355,44 0,34.1502645 0,22 C0,9.8497355 9.8497355,0 22,0 Z M22,2 C10.954305,2 2,10.954305 2,22 C2,33.045695 10.954305,42 22,42 C33.045695,42 42,33.045695 42,22 C42,10.954305 33.045695,2 22,2 Z M26.5386512,14 C27.7786582,14 28.899102,14.5512061 29.6830428,15.4352159 C30.6654341,15.2311137 31.5861948,14.8541095 32.41944,14.3328037 C32.0989611,15.3936155 31.4160944,16.2841254 30.526149,16.8457316 C31.3963726,16.7365304 32.2271527,16.4921277 33,16.1307237 C32.4243705,17.0420338 31.6921993,17.8428427 30.8503258,18.4837498 C30.858954,18.677452 30.8614193,18.8737542 30.8614193,19.0713563 C30.8614193,25.0761231 26.5300229,32 18.6043317,32 C16.1711569,32 13.9068498,31.2472916 12,29.9589773 C12.3365029,30.0018778 12.6804015,30.021378 13.0279979,30.021378 C15.0457827,30.021378 16.9033281,29.29597 18.3787639,28.0765564 C16.4928685,28.041456 14.9015672,26.7258414 14.3542877,24.9214213 C14.6156013,24.9747219 14.8867758,25.0020222 15.1641134,25.0020222 C15.558549,25.0020222 15.9381933,24.9487217 16.3005811,24.8421205 C14.3271703,24.4261158 12.8431062,22.5891954 12.8431062,20.386971 L12.8431062,20.386971 L12.8431062,20.3310703 C13.4248987,20.6690741 14.0892763,20.8757764 14.7955626,20.8991767 C13.6393731,20.0827676 12.8788519,18.6917521 12.8788519,17.1161346 C12.8788519,16.2841254 13.0908611,15.5041167 13.4618771,14.8307092 C15.5881317,17.5815398 18.762106,19.3885599 22.3416094,19.578362 C22.2676528,19.2468583 22.231907,18.8997544 22.231907,18.5435505 C22.231907,16.0345226 24.1597112,14 26.5386512,14 Z" id="path-1"></path>
    </defs>
    <g id="Symbols" stroke="none" stroke-width="1" fill="none" fill-rule="evenodd">
        <g id="Menu-/-Bottom-of-Menu" transform="translate(-140.000000, 0.000000)">
            <g id="Group-2" transform="translate(20.000000, 0.000000)">
                <g id="Social---Twitter" transform="translate(120.000000, 0.000000)">
                    <g id="twitter">
                        <rect id="Rectangle" x="0" y="0" width="44" height="44"></rect>
                        <mask id="mask-2" fill="white">
                            <use xlink:href="#path-1"></use>
                        </mask>
                        <use id="Oval" fill="#FFCC00" xlink:href="#path-1"></use>
                    </g>
                </g>
            </g>
        </g>
    </g>
</svg>