<?xml version="1.0" encoding="UTF-8"?>
<svg width="34px" height="34px" viewBox="0 0 34 34" version="1.1" xmlns="http://www.w3.org/2000/svg" xmlns:xlink="http://www.w3.org/1999/xlink">
    <!-- Generator: Sketch 61.2 (89653) - https://sketch.com -->
    <title>Icon - Pause@3x</title>
    <desc>Created with Sketch.</desc>
    <defs>
        <path d="M20,3.33333333 C10.8,3.33333333 3.33333333,10.8 3.33333333,20 C3.33333333,29.2 10.8,36.6666667 20,36.6666667 C29.2,36.6666667 36.6666667,29.2 36.6666667,20 C36.6666667,10.8 29.2,3.33333333 20,3.33333333 Z M18.3333333,26.6666667 L15,26.6666667 L15,13.3333333 L18.3333333,13.3333333 L18.3333333,26.6666667 Z M25,26.6666667 L21.6666667,26.6666667 L21.6666667,13.3333333 L25,13.3333333 L25,26.6666667 Z" id="path-1"></path>
    </defs>
    <g id="Symbols" stroke="none" stroke-width="1" fill="none" fill-rule="evenodd">
        <g id="Banners/Ad-Playlist-Question-On" transform="translate(-318.000000, -11.000000)">
            <g id="icon/av/pause_circle_filled_24px" transform="translate(315.000000, 8.000000)">
                <mask id="mask-2" fill="white">
                    <use xlink:href="#path-1"></use>
                </mask>
                <g fill-rule="nonzero"></g>
                <g id="Colors/Yellow/1-(Primary)" mask="url(#mask-2)" fill="#FAC51C" fill-rule="evenodd">
                    <polygon id="Backing" points="0 0 40 0 40 40 0 40"></polygon>
                </g>
            </g>
        </g>
    </g>
</svg>