<?xml version="1.0" encoding="UTF-8"?>
<svg width="20px" height="20px" viewBox="0 0 20 20" version="1.1" xmlns="http://www.w3.org/2000/svg" xmlns:xlink="http://www.w3.org/1999/xlink">
    <!-- Generator: Sketch 61.2 (89653) - https://sketch.com -->
    <title>Icon - Support@3x</title>
    <desc>Created with Sketch.</desc>
    <defs>
        <path d="M12,2 C6.48,2 2,6.48 2,12 C2,17.52 6.48,22 12,22 C17.52,22 22,17.52 22,12 C22,6.48 17.52,2 12,2 Z M13,19 L11,19 L11,17 L13,17 L13,19 Z M15.07,11.25 L14.17,12.17 C13.45,12.9 13,13.5 13,15 L11,15 L11,14.5 C11,13.4 11.45,12.4 12.17,11.67 L13.41,10.41 C13.78,10.05 14,9.55 14,9 C14,7.9 13.1,7 12,7 C10.9,7 10,7.9 10,9 L8,9 C8,6.79 9.79,5 12,5 C14.21,5 16,6.79 16,9 C16,9.88 15.64,10.68 15.07,11.25 Z" id="path-1"></path>
    </defs>
    <g id="Desktop---Main" stroke="none" stroke-width="1" fill="none" fill-rule="evenodd">
        <g id="V2---Plndr---Desktop---Navigation-Drawer---1" transform="translate(-62.000000, -618.000000)">
            <g id="Menu" transform="translate(40.000000, 96.000000)">
                <g transform="translate(0.000000, 48.000000)" id="Menu-/-Data-Sets-/-Business-Logged-In">
                    <g transform="translate(0.000000, 120.000000)">
                        <g id="Stacked-Group">
                            <g id="Menu-/-Tertiary-Options" transform="translate(0.000000, 344.000000)">
                                <g id="Group-3">
                                    <g id="Support">
                                        <g id="icon/action/support" transform="translate(20.000000, 8.000000)">
                                            <mask id="mask-2" fill="white">
                                                <use xlink:href="#path-1"></use>
                                            </mask>
                                            <g id="icon/action/help_24px" fill-rule="nonzero"></g>
                                            <g id="Colors/Yellow/1-(Primary)" mask="url(#mask-2)" fill="#FAC51C" fill-rule="evenodd">
                                                <polygon id="Backing" points="0 0 24 0 24 24 0 24"></polygon>
                                            </g>
                                        </g>
                                    </g>
                                </g>
                            </g>
                        </g>
                    </g>
                </g>
            </g>
        </g>
    </g>
</svg>