<?xml version="1.0" encoding="UTF-8"?>
<svg width="20px" height="19px" viewBox="0 0 20 19" version="1.1" xmlns="http://www.w3.org/2000/svg" xmlns:xlink="http://www.w3.org/1999/xlink">
    <!-- Generator: Sketch 61.2 (89653) - https://sketch.com -->
    <title>Icon - Withdrawl History@3x</title>
    <desc>Created with Sketch.</desc>
    <defs>
        <path d="M3.68421053,10.7142857 L3.68421053,16.7142857 L6.21052632,16.7142857 L6.21052632,10.7142857 L3.68421053,10.7142857 Z M8.73684211,10.7142857 L8.73684211,16.7142857 L11.2631579,16.7142857 L11.2631579,10.7142857 L8.73684211,10.7142857 Z M2,21 L18,21 L18,18.4285714 L2,18.4285714 L2,21 Z M13.7894737,10.7142857 L13.7894737,16.7142857 L16.3157895,16.7142857 L16.3157895,10.7142857 L13.7894737,10.7142857 Z M18.9853313,2 L19.1714719,3.224 C19.4183106,3.328 19.6489631,3.464 19.8593829,3.624 L19.8593829,3.624 L19.8553364,3.62 L21.016692,3.156 L22,4.844 L21.0126454,5.612 C21.024785,5.736 21.0369246,5.864 21.0369246,6 C21.0369246,6.136 21.0207385,6.272 21.0045524,6.404 L21.0045524,6.404 L21.0085989,6.396 L21.8624178,7.06 C21.9085483,7.0936 21.947395,7.12432 21.9710916,7.14352 L21.9959535,7.164 L21.0126454,8.844 L19.8472433,8.384 L19.8553364,8.368 C19.64087,8.532 19.406171,8.668 19.1552858,8.772 L19.1552858,8.772 L19.1593323,8.772 L19.005564,9.832 C18.9934244,9.928 18.9812848,10 18.9812848,10 L18.9812848,10 L17.0187152,10 L16.8366211,8.768 L16.8487607,8.768 C16.593829,8.664 16.3631765,8.528 16.1487102,8.364 L16.1487102,8.364 L16.1568032,8.38 L14.9914011,8.84 L14.0080931,7.16 C14.0080931,7.16 14.0647446,7.116 14.1416287,7.056 L14.1416287,7.056 L14.9914011,6.396 C14.975215,6.272 14.9630754,6.136 14.9630754,6 C14.9630754,5.864 14.975215,5.736 14.9914011,5.604 L14.9914011,5.604 L14.9873546,5.612 L14,4.844 L14.9873546,3.156 L16.1527567,3.624 C16.35913,3.468 16.5897825,3.332 16.8406677,3.228 L16.8406677,3.228 L16.8366211,3.228 L17.0146687,2 L18.9853313,2 Z M10,3 L12.1160862,4.13361759 L12.12,9 L2,9 L2,7.28571429 L10,3 Z M18,5 C17.4485714,5 17,5.44857143 17,6 C17,6.55142857 17.4485714,7 18,7 C18.5514286,7 19,6.55142857 19,6 C19,5.44857143 18.5514286,5 18,5 Z" id="path-1"></path>
    </defs>
    <g id="Desktop---Main" stroke="none" stroke-width="1" fill="none" fill-rule="evenodd">
        <g id="V2---Plndr---Desktop---Navigation-Drawer---1" transform="translate(-62.000000, -506.000000)">
            <g id="Menu" transform="translate(40.000000, 96.000000)">
                <g transform="translate(0.000000, 48.000000)" id="Menu-/-Data-Sets-/-Business-Logged-In">
                    <g transform="translate(0.000000, 120.000000)">
                        <g id="Stacked-Group">
                            <g id="Payment-Methods-Copy" transform="translate(0.000000, 232.000000)">
                                <g id="icon/a_new/bank_manual" transform="translate(20.000000, 8.000000)">
                                    <mask id="mask-2" fill="white">
                                        <use xlink:href="#path-1"></use>
                                    </mask>
                                    <g id="icon/action/account_balance_24px" fill-rule="nonzero"></g>
                                    <g id="Colors/Yellow/1-(Primary)" mask="url(#mask-2)" fill="#FAC51C" fill-rule="evenodd">
                                        <polygon id="Backing" points="0 0 24 0 24 24 0 24"></polygon>
                                    </g>
                                </g>
                            </g>
                        </g>
                    </g>
                </g>
            </g>
        </g>
    </g>
</svg>