<?xml version="1.0" encoding="UTF-8"?>
<svg width="20px" height="22px" viewBox="0 0 20 22" version="1.1" xmlns="http://www.w3.org/2000/svg" xmlns:xlink="http://www.w3.org/1999/xlink">
    <!-- Generator: Sketch 61.2 (89653) - https://sketch.com -->
    <title>Icon - Withdrawl Funds@3x</title>
    <desc>Created with Sketch.</desc>
    <defs>
        <path d="M4.5,10.5 L4.5,17.5 L7.5,17.5 L7.5,10.5 L4.5,10.5 Z M10.5,10.5 L10.5,17.5 L13.5,17.5 L13.5,10.5 L10.5,10.5 Z M2.5,22.5 L21.5,22.5 L21.5,19.5 L2.5,19.5 L2.5,22.5 Z M16.5,10.5 L16.5,17.5 L19.5,17.5 L19.5,10.5 L16.5,10.5 Z M12,1.5 L2.5,6.5 L2.5,8.5 L21.5,8.5 L21.5,6.5 L12,1.5 Z" id="path-1"></path>
    </defs>
    <g id="Desktop---Main" stroke="none" stroke-width="1" fill="none" fill-rule="evenodd">
        <g id="V2---Plndr---Desktop---Navigation-Drawer---1" transform="translate(-62.000000, -353.000000)">
            <g id="Menu" transform="translate(40.000000, 96.000000)">
                <g transform="translate(0.000000, 48.000000)" id="Menu-/-Data-Sets-/-Business-Logged-In">
                    <g transform="translate(0.000000, 120.000000)">
                        <g id="Stacked-Group">
                            <g id="Org-Details-Copy-3" transform="translate(0.000000, 80.000000)">
                                <g id="icon/a_menu/bank" transform="translate(20.000000, 8.000000)">
                                    <mask id="mask-2" fill="white">
                                        <use xlink:href="#path-1"></use>
                                    </mask>
                                    <g id="icon/action/account_balance_24px" fill-rule="nonzero"></g>
                                    <g id="Colors/Yellow/1-(Primary)" mask="url(#mask-2)" fill="#FAC51C" fill-rule="evenodd">
                                        <polygon id="Backing" points="0 0 24 0 24 24 0 24"></polygon>
                                    </g>
                                </g>
                            </g>
                        </g>
                    </g>
                </g>
            </g>
        </g>
    </g>
</svg>